<svg class="artwork-L5TAwQ" preserveAspectRatio="xMinYMin slice" xmlns="http://www.w3.org/2000/svg"
    xmlns:xlink="http://www.w3.org/1999/xlink" viewBox="0 0 1700 1200">
    <defs>
        <linearGradient id="linear-gradient" x1="269.71" x2="269.71" y1="800.4" y2="913.29"
            gradientUnits="userSpaceOnUse">
            <stop offset="0" stop-color="#29cc7a" />
            <stop offset="1" stop-color="#038567" />
        </linearGradient>
        <linearGradient id="linear-gradient-2" x1="1512.99" x2="1503.54" y1="519.46" y2="476.33"
            gradientUnits="userSpaceOnUse">
            <stop offset="0" stop-color="#ffe75c" />
            <stop offset="1" stop-color="#ffc619" />
        </linearGradient>
        <linearGradient id="linear-gradient-3" x1="1441.31" x2="1426.37" y1="493.59" y2="538.11"
            xmlns:xlink="http://www.w3.org/1999/xlink" xlink:href="#linear-gradient-2" />
        <linearGradient id="linear-gradient-4" x1="1170.7" x2="1126.43" y1="805.19" y2="847.49"
            gradientUnits="userSpaceOnUse">
            <stop offset="0" stop-color="#d11583" />
            <stop offset="1" stop-color="#eb50a4" />
        </linearGradient>
        <linearGradient id="linear-gradient-5" x1="693.92" x2="693.92" y1="1235.03" y2="1193.91"
            gradientTransform="rotate(-21.3 -1852.872 -1403.071)" gradientUnits="userSpaceOnUse">
            <stop offset="0" stop-color="#66bcff" />
            <stop offset="1" stop-color="#8cd9ff" />
        </linearGradient>
        <linearGradient id="linear-gradient-6" x1="-6.39" x2="-57.56" y1="1177.84" y2="1139.89"
            gradientTransform="rotate(-4.2 -13157.002 -13444.26)" gradientUnits="userSpaceOnUse">
            <stop offset="0" stop-color="#ffc619" />
            <stop offset="1" stop-color="#ffe75c" />
        </linearGradient>
    </defs>
    <path fill="#5865f2" d="M0 0H1700V1200H0z" data-name="Layer 4" />
    <g data-name="Layer 5">
        <path fill="#6270fc"
            d="M935.8 386.9c-2.1 0-4.2.2-6.3.3a126.6 126.6 0 00-176.9-48.4 126.3 126.3 0 00-225.3 48.3 64.7 64.7 0 00-8.6-5.8c-34.2-19.9-78.7-7-99.3 28.6-18.4 31.7-11.6 70.9 14.4 93.1-14.2 9.1-23.3 23-23.3 38.6 0 27.4 28 49.6 62.7 49.6a74.7 74.7 0 0034.9-8.4A126.4 126.4 0 00746 550.7a126.2 126.2 0 00166.8-20.2 73.6 73.6 0 0096.7-69.9 73.7 73.7 0 00-73.7-73.7z" />
        <path fill="#6270fc"
            d="M1210.9 311.8A65.4 65.4 0 001173 324a73.7 73.7 0 00-139.8 32.4 78.3 78.3 0 001.1 12.9c-32.9 15-64.1 40.2-87.4 72.8h264a65.2 65.2 0 000-130.3z" />
        <path fill="#707cff"
            d="M1035.5 617.4a115.9 115.9 0 10-199-109.1 117.7 117.7 0 104.3 194.1 76 76 0 00137.2-.7 51 51 0 1057.5-84.3z" />
    </g>
    <path fill="#6a77fc"
        d="M990 243.1H579.4a3 3 0 01-2.3-5c24.6-29.4 61.4-30.9 101.2-23.2 22.4-86.3 123-85.3 157.3-32.2 36.6-28.2 159-31.3 160.2 54.5a5.8 5.8 0 01-5.8 5.9z"
        data-name="Layer 25" />
    <path fill="#6874f7"
        d="M57.9 530.5c89.2-45.1 152.1-10.2 152.1-10.2 44.1-13.7 83-4.1 103 11.6 12.5 9.7-15.5 8-78.3 8H60.2a5 5 0 01-5-5 4.9 4.9 0 012.7-4.4z"
        data-name="Layer 24" />
    <path fill="#6874f7"
        d="M1525.8 824.6a34.7 34.7 0 00-66.9-12.1 33.3 33.3 0 00-7.8-.9 36.3 36.3 0 00-27.8 13h102.5z"
        data-name="Layer 23" />
    <path fill="#66bcff"
        d="M1376.2 297.5a24.6 24.6 0 01-11.1-17.2l-1.8-12a1.3 1.3 0 00-1.2-1.1 1.3 1.3 0 00-1.2 1.1l-1.8 12a25 25 0 01-11.1 17.2l-1.6 1a1.3 1.3 0 00-.6 1 1.3 1.3 0 00.6 1l1.6 1a25.2 25.2 0 0111.1 17.3l1.8 12a1.2 1.2 0 001.2 1 1.2 1.2 0 001.2-1l1.8-12a24.8 24.8 0 0111.1-17.3l1.6-1a1.2 1.2 0 00.5-1 1.2 1.2 0 00-.5-1z"
        data-name="Layer 19" />
    <path fill="#3442d9"
        d="M1464.3 954.2a44.2 44.2 0 01-19.8-30.6l-3.2-21.4a2.1 2.1 0 00-2.1-1.8 2.1 2.1 0 00-2.1 1.8l-3.2 21.4a44.2 44.2 0 01-19.8 30.6l-2.8 1.8a2.1 2.1 0 00-.9 1.8v.2a2.1 2.1 0 00.9 1.8l2.8 1.8a44 44 0 0119.8 30.6l3.2 21.3a2.1 2.1 0 002.1 1.9 2.1 2.1 0 002.1-1.9l3.2-21.3a44 44 0 0119.8-30.6l2.8-1.8a2.2 2.2 0 001-1.8v-.2a2.2 2.2 0 00-1-1.8z"
        data-name="Layer 18" />
    <path fill="#ff78b9"
        d="M789.5 845.4a13.5 13.5 0 01-6.1-9.3l-.9-6.6a.9.9 0 00-.7-.6.6.6 0 00-.6.6l-1 6.6a13.5 13.5 0 01-6.1 9.3l-.8.6a.5.5 0 00-.3.5.5.5 0 00.3.5l.8.6a13.5 13.5 0 016.1 9.3l1 6.6a.6.6 0 00.6.6.9.9 0 00.7-.6l.9-6.6a13.5 13.5 0 016.1-9.3l.8-.6a.5.5 0 00.3-.5.5.5 0 00-.3-.5z"
        data-name="Layer 17" />
    <path fill="#ff78b9"
        d="M843.2 146.5a8.2 8.2 0 01-3.7-5.8l-.6-4c0-.2-.2-.3-.4-.3s-.4.1-.4.3l-.6 4a8.2 8.2 0 01-3.7 5.8l-.5.3-.2.3c0 .1.1.2.2.3l.5.3a8.2 8.2 0 013.7 5.8l.6 4c0 .2.2.3.4.3s.4-.1.4-.3l.6-4a8.2 8.2 0 013.7-5.8l.5-.3c.1-.1.2-.2.2-.3l-.2-.3z"
        data-name="Layer 16" />
    
   
    <path fill="#6874f7"
        d="M537.2 82.7a20.5 20.5 0 00-17 8.9 43.1 43.1 0 00-17.6-3.8 42.6 42.6 0 00-27.9 10.3h82.5a20.8 20.8 0 00-20-15.4z"
        data-name="Layer 13" />
    
   
    <!-- <g data-name="Layer 10">
        <path fill="#ff8c19"
            d="M1003.8 132.9c.4-6-3.3-11.5-10.1-11s-10.3 2.8-17.9 6.6a22.3 22.3 0 01-13.2 2.1c-20.9-3-26.3-2.6-30.6-1s-5.7 4-4.3 8.9 4.3 7.8 11.3 10 22.5 7.7 31.5 11.9 19.4 5.4 26.9 9.2 27.2 17.5 34.3 23.3 9.5 4.5 10.3 3.7.7-1.5.3-8a32.1 32.1 0 00-6.2-17c-3.9-5.5-12.3-13.5-16.9-20.5s-6.9-17.2-15.4-18.2z" />
        <path fill="url(#linear-gradient-6)"
            d="M1019.2 151.1c-4.6-7-6.9-17.2-15.4-18.2-12.8-.3-23.5 5.7-31.3 6.9-5.6.8-18.8 1-24.2 1.1s-6.4.7-7.2 1.4-1.1 2-.1 2.5l-.4 2.1 7.9 2.8 34.8 12.4 18.7 8.8 22.1 14.2 15.6 11.5 2.5-.2c.6-.8.5-1.9.1-7.8a32.1 32.1 0 00-6.2-17c-3.9-5.5-12.3-13.5-16.9-20.5z" />
        <path fill="#ed5f00"
            d="M1042 196.6c.4-.4.6-.8.6-2.1-.3 3.1-3.6.1-6.1-2.2s-9-11.2-20.5-16c-21.1-9-25.3-18.6-47.9-21.3-10.7-1.2-21.3-7.9-24.6-9.2s-4.2-1.5-4.1-3a15.3 15.3 0 00-2-9.3c-2.4-3.8-6.7-4.8-9.4-.8a7.5 7.5 0 00-.3 5.8c1.3 4.9 4.3 7.8 11.3 10s22.5 7.7 31.5 11.9 19.4 5.4 26.9 9.2 27.2 17.5 34.3 23.3 9.5 4.5 10.3 3.7z" />
        <path
            d="M1042 196.6c.4-.4.6-.8.6-2.1-.3 3.1-3.6.1-6.1-2.2a91.8 91.8 0 00-7.5-7.7c2.2 2.2 2.8 5.6 2.9 8.4 7 5.7 9.3 4.4 10.1 3.6z" />
        <path fill="#ffc619"
            d="M1046.3 203.2c-1.2-3.6-1.1-6.7-.8-10.7s-1.3-10.8-8.7-19.9l-3.4 16.3c6 6.9 8.9 12.9 8.9 16.7s.6 10 4.1 9.2 1.1-8-.1-11.6z" />
        <path fill="#ff78b9"
            d="M951.8 146.5a34.5 34.5 0 008.1 3.8 77 77 0 0011.2 2.7c.3 0 .4-.1.4-.3-.5-4.2-6.1-7.5-10.2-8.1s-8.4.1-9.7 1.4 0 .4.2.5z" />
        <path fill="#eb459f"
            d="M1005.7 145.5c-.3 2.9-5.1 4.9-10.8 4.4s-10.1-3.3-9.9-6.3 3.6-4.8 8-2.8a20.3 20.3 0 006 1.5c4.4.4 6.9.9 6.7 3.2zM1013.9 164.6a39.5 39.5 0 004.6 2.3c2.7 1 3.6 1.8 2.7 3s-4.8 1.5-8.5-.3-5.6-4.5-4.6-6.1 2.9-.7 5.8 1.1zM1036.5 170.1a7.6 7.6 0 00-4.6-2.9c-2.8-.6-4.1.8-4 2.7s2.5 5.2 7.3 8.7 6.1-1 5.2-3-2.6-3.8-3.9-5.5z" />
        <path fill="#66bcff"
            d="M1005.6 102.9a39.9 39.9 0 00-14.4 1.9c-3.5 1.2-.6 5.2 8.6 7.5s19.3 1.8 23 1.8 3.3.2 5.6 2.7 4.1 4.4 4.2 2.3-.4-4 1.2-5.8 2.2-2.8 2.2-4.4-.6-1.3-2.5-.2a57.1 57.1 0 01-5.7 3c-.9.3-1-.4-3.4-2.2a32.6 32.6 0 00-18.8-6.6z" />
        <path fill="none" stroke="#66bcff" stroke-linecap="round" stroke-linejoin="round"
            stroke-width="2.439" d="M986.7 107.2l4.4-1.1-3.1-2.7" />
        <ellipse cx="997.8" cy="104.9" rx="1" ry="0.6" transform="rotate(-.6 1049.863 110.541)" />
        <path fill="#ff8c19"
            d="M935.4 135.9c-1.4-2.1-3.6-2.8-4.8-1.7s-1.2 3.7.2 5.7 3.5 2.8 4.8 1.7 1.1-3.7-.2-5.7z" />
        <path fill="none" stroke="#ffe75c" stroke-linecap="round" stroke-miterlimit="10"
            stroke-width="1.742" d="M1032.9 181.2c4.6 3.1 6.7 5.5 7.9 10.4" />
        <path fill="none" stroke="#000" stroke-linecap="round" stroke-miterlimit="10"
            stroke-width="1.742" d="M1029 113.5L1031.4 113.2" />
        <path fill="#3442d9"
            d="M960.6 175.9a37.7 37.7 0 00-12.6 3.7c-2.9 1.6.2 4.8 8.8 5.6s17.4-1.2 20.8-1.6 3-.4 5.4 1.6 4.3 3.4 4.1 1.5-.9-3.6.2-5.4 1.6-2.8 1.4-4.3-.7-1.1-2.3.2a30.2 30.2 0 01-4.7 3.5c-.8.4-.9-.3-3.3-1.4a29.6 29.6 0 00-17.8-3.4z" />
    </g> -->
    <!-- <g data-name="Layer 9">
        <path fill="#ffe75c"
            d="M604.7 175.3l-15.7 1.5a7.7 7.7 0 00-3.5 1.2c-5.6 3.4-6.7 5.7-6.7 5.7l9.3 9 18.5-14.6z" />
        <path fill="#ffc619"
            d="M549.6 178.7l2.3-2.6s12.1-1.1 16.7-1.2 14.6 4.2 20 13.3c5.7-9.2 13.5-12.4 16.1-12.9l1.9 2.8L587 195z" />
        <path fill="#66bcff"
            d="M566.6 193.4a30.2 30.2 0 00-1.2 4c-.3 1.3.6 1.3 7.2 1.3h15.5c1.9.1 2.7-.8 1.7-4.4 5.7-6.5 15.7-13 19.4-15.3a.5.5 0 00.2-.7l-.9-1.1a.6.6 0 00-.6 0c-7.6 5-13.9 9.5-19.8 15.4-8-9.2-14.4-12.8-19.7-15.2a1.5 1.5 0 00-.9-.2l-20 1a1.1 1.1 0 00-1.1 1.1.9.9 0 00.6.9c13.1 5.7 19.6 13.2 19.6 13.2z" />
        <path fill="#8cd9ff"
            d="M566.6 193.4a30.2 30.2 0 00-1.2 4c-.3 1.3.6 1.3 7.2 1.3h13c-1.7-.1-2-.5.1-4.7-2.6-3.9-8.6-9.6-17.6-14.5l-21.1.7c13.1 5.7 19.6 13.2 19.6 13.2z" />
        <path fill="none" stroke="#000" stroke-linecap="round" stroke-miterlimit="10"
            stroke-width="1.521" d="M588.4 190.2L588.1 192.7" />
        <path fill="#3442d9"
            d="M505.7 158.6l-.6-1c-.1-.1-.4-.2-.5-.1l-1.2.7-1.5-2.5-13.3.3a8.4 8.4 0 00-3 .8 28.4 28.4 0 00-3.3 2c-3.8-3.6-8.2-5.4-10.8-5.5s-14.2 0-14.2 0l-1.7 1.7h-2.2a1 1 0 00-.9.9.7.7 0 00.4.8 53.9 53.9 0 0110.9 7.2l1.6 1.4.7.8a16.5 16.5 0 012.6 2.8s-.9 2.2-1.2 3.3c0 .2-.1.3-.1.4a.5.5 0 00.4.5 7.5 7.5 0 002.4.4l3.4.2h10.8l2.2.2c1.6.1 2.3-.5 1.7-3.7 5.2-5.1 14-10 17.3-11.8.2.6.3.4.1.2z" />
        <g>
            <path fill="#ffe75c"
                d="M543.3 128.7l-22.7 2.2a10.4 10.4 0 00-4.9 1.8c-7.6 4.9-8.9 8.4-8.9 8.4l15.3 13.1 24.6-21.4z" />
            <path fill="#ffc619"
                d="M463.2 133.9l2.9-3.8s17.5-1.7 24.2-1.8 22.1 6 31.8 19.3c6.6-13.5 17.5-18.2 21.2-18.9l3.4 4.1-25.8 24.8z" />
            <path fill="#eb459f"
                d="M490.7 155.3s-.9 4-1.1 5.9 1.1 2 10.9 1.9h22.7c2.8.1 3.8-1.2 1.7-6.5 7.3-9.4 20.7-19 25.8-22.4a.7.7 0 000-1l-1.4-1.6a.8.8 0 00-.9-.1c-10.2 7.4-18.7 14-26.3 22.7-13.4-13.4-23.4-18.7-31.6-22.2a3 3 0 00-1.3-.2l-29.2 1.6a1.4 1.4 0 00-1.4 1.6 1.4 1.4 0 001 1.3c20.3 8.1 31.1 19 31.1 19z" />
            <path fill="#ff78b9"
                d="M490.7 155.3s-.9 4-1.1 5.9 1.1 2 10.9 1.9h19c-2.4-.1-3-.8-.7-6.8-4.4-5.7-14.3-14-28.4-21.1l-30.8 1.1c20.3 8.1 31.1 19 31.1 19z" />
            <path fill="none" stroke="#000" stroke-linecap="round" stroke-miterlimit="10"
                stroke-width="1.521" d="M522 150L522.2 151.9" />
        </g>
    </g> -->
    <path fill="#6874f7"
        d="M1193 1115.1a15.7 15.7 0 0015.6-18.5 111.8 111.8 0 00-213.8-20.7 117.2 117.2 0 00-111.3 35.2 2.4 2.4 0 001.8 4H1193z"
        data-name="Layer 8" />
</svg>